<?xml version="1.0"?>
<svg width="24" height="24" xmlns="http://www.w3.org/2000/svg" xmlns:svg="http://www.w3.org/2000/svg">

 <g class="layer">
  <title>Layer 1</title>
  <path d="m14.81,16.21l-7.02,-7.02c-0.39,-0.39 -0.39,-1.01 0,-1.39l0.01,-0.01c0.38,-0.39 1,-0.39 1.39,0l7.02,7.02c0.39,0.39 0.39,1.01 0,1.39l-0.01,0.01c-0.38,0.39 -1,0.39 -1.39,0z" id="svg_2"/>
  <path d="m7.79,14.81l7.02,-7.03c0.39,-0.38 1.01,-0.38 1.39,0l0.01,0.02c0.39,0.38 0.39,1 0,1.39l-7.02,7.02c-0.39,0.39 -1.01,0.39 -1.39,0l-0.02,-0.01c-0.38,-0.38 -0.38,-1 0.01,-1.39z" id="svg_3"/>
 </g>
</svg>