<svg xmlns="http://www.w3.org/2000/svg"  viewBox="0 0 24 24" width="24px" height="24px"><path d="M18,21H6c-1.657,0-3-1.343-3-3V6c0-1.657,1.343-3,3-3h12c1.657,0,3,1.343,3,3v12	C21,19.657,19.657,21,18,21z" opacity=".35"/><path d="M17.907,15.684l-1.735,0.024c0,0-0.374,0.073-0.864-0.265c-0.649-0.446-1.261-1.606-1.738-1.455	c-0.484,0.154-0.469,1.198-0.469,1.198s0.004,0.184-0.107,0.304c-0.12,0.129-0.355,0.116-0.355,0.116h-0.777	c0,0-1.714,0.142-3.225-1.433c-1.646-1.717-3.1-5.106-3.1-5.106S5.452,8.853,5.543,8.744C5.646,8.623,5.924,8.62,5.924,8.62	l1.857-0.009c0,0,0.175,0.031,0.301,0.123C8.185,8.81,8.244,8.953,8.244,8.953s0.3,0.761,0.698,1.45	c0.776,1.343,1.137,1.637,1.4,1.493c0.384-0.21,0.269-1.898,0.269-1.898s0.007-0.613-0.193-0.886	C10.262,8.899,9.969,8.836,9.84,8.82c-0.105-0.014,0.066-0.257,0.289-0.367c0.334-0.163,0.925-0.173,1.622-0.166	c0.543,0.006,0.7,0.039,0.912,0.091c0.641,0.155,0.423,0.753,0.423,2.188c0,0.46-0.083,1.106,0.248,1.319	c0.143,0.092,0.491,0.014,1.36-1.466c0.413-0.702,0.722-1.527,0.722-1.527s0.068-0.147,0.173-0.21	c0.108-0.065,0.253-0.045,0.253-0.045l1.955-0.012c0,0,0.587-0.071,0.683,0.196c0.1,0.279-0.219,0.93-1.018,1.995	c-1.311,1.75-1.457,1.587-0.368,2.599c1.04,0.967,1.255,1.437,1.291,1.496C18.815,15.627,17.907,15.684,17.907,15.684z"/></svg>